<svg width="14" height="13" viewBox="0 0 14 13" fill="none" xmlns="http://www.w3.org/2000/svg">
<path fill-rule="evenodd" clip-rule="evenodd" d="M6.60685 0.225586C3.01591 0.225586 0.126953 3.11454 0.126953 6.70548C0.126953 9.56744 1.98992 11.9974 4.55488 12.8614C4.87888 12.9154 4.98688 12.7264 4.98688 12.5374C4.98688 12.3754 4.98688 11.9704 4.98688 11.4304C3.1779 11.8354 2.79991 10.5664 2.79991 10.5664C2.50291 9.81043 2.07092 9.62144 2.07092 9.62144C1.47693 9.21644 2.12492 9.21644 2.12492 9.21644C2.77291 9.27044 3.1239 9.89143 3.1239 9.89143C3.6909 10.8904 4.63588 10.5934 5.01387 10.4314C5.06787 9.99943 5.22987 9.72943 5.41887 9.56744C3.98789 9.40544 2.47592 8.83845 2.47592 6.35449C2.47592 5.6525 2.71891 5.05851 3.1509 4.62651C3.09691 4.46452 2.85391 3.81653 3.2049 2.89854C3.2049 2.89854 3.74489 2.73655 4.98688 3.57353C5.49987 3.43853 6.06686 3.35754 6.60685 3.35754C7.14684 3.35754 7.71383 3.43853 8.22682 3.57353C9.4688 2.73655 10.0088 2.89854 10.0088 2.89854C10.3598 3.78953 10.1438 4.43752 10.0628 4.62651C10.4678 5.08551 10.7378 5.6525 10.7378 6.35449C10.7378 8.83845 9.22581 9.37844 7.76783 9.54044C8.01083 9.72943 8.19982 10.1344 8.19982 10.7284C8.19982 11.5924 8.19982 12.2944 8.19982 12.5104C8.19982 12.6724 8.30782 12.8884 8.65882 12.8344C11.2238 11.9974 13.0867 9.56744 13.0867 6.70548C13.0867 3.11454 10.1978 0.225586 6.60685 0.225586Z" fill="white"/>
</svg>
