<svg width="14" height="14" viewBox="0 0 14 14" fill="none" xmlns="http://www.w3.org/2000/svg">
<path d="M7.00076 1.44623C8.80947 1.44623 9.02366 1.45301 9.73818 1.48559C10.1678 1.49084 10.5933 1.56973 10.9962 1.71881C11.2884 1.8315 11.5538 2.00413 11.7753 2.22559C11.9967 2.44704 12.1694 2.71241 12.282 3.00462C12.4311 3.40756 12.51 3.83308 12.5153 4.26268C12.5475 4.9772 12.5546 5.19139 12.5546 7.0001C12.5546 8.80881 12.5479 9.023 12.5153 9.73752C12.51 10.1671 12.4311 10.5926 12.282 10.9956C12.1694 11.2878 11.9967 11.5532 11.7753 11.7746C11.5538 11.9961 11.2884 12.1687 10.9962 12.2814C10.5933 12.4305 10.1678 12.5094 9.73818 12.5146C9.02398 12.5469 8.80979 12.554 7.00076 12.554C5.19172 12.554 4.97753 12.5472 4.26334 12.5146C3.83373 12.5094 3.40821 12.4305 3.00527 12.2814C2.71307 12.1687 2.44769 11.9961 2.22624 11.7746C2.00479 11.5532 1.83216 11.2878 1.71947 10.9956C1.57038 10.5926 1.4915 10.1671 1.48624 9.73752C1.45398 9.023 1.44689 8.80881 1.44689 7.0001C1.44689 5.19139 1.45366 4.9772 1.48624 4.26268C1.4915 3.83308 1.57038 3.40756 1.71947 3.00462C1.83216 2.71241 2.00479 2.44704 2.22624 2.22559C2.44769 2.00413 2.71307 1.8315 3.00527 1.71881C3.40821 1.56973 3.83373 1.49084 4.26334 1.48559C4.97785 1.45333 5.19205 1.44623 7.00076 1.44623ZM7.00076 0.225586C5.16205 0.225586 4.93043 0.233328 4.20785 0.266231C3.64561 0.277414 3.08934 0.38387 2.56269 0.58107C2.11092 0.751285 1.70172 1.01803 1.36366 1.36268C1.01869 1.70087 0.751722 2.11029 0.581401 2.56236C0.384201 3.089 0.277746 3.64528 0.266563 4.20752C0.234304 4.92946 0.226562 5.16107 0.226562 6.99978C0.226562 8.83849 0.234304 9.0701 0.267208 9.79268C0.278391 10.3549 0.384847 10.9112 0.582046 11.4378C0.752178 11.8898 1.01892 12.2993 1.36366 12.6375C1.70191 12.9823 2.11133 13.249 2.56334 13.4191C3.08998 13.6163 3.64626 13.7228 4.2085 13.734C4.93108 13.7662 5.16172 13.7746 7.0014 13.7746C8.84108 13.7746 9.07172 13.7669 9.7943 13.734C10.3565 13.7228 10.9128 13.6163 11.4395 13.4191C11.8893 13.2448 12.2978 12.9784 12.6389 12.6371C12.98 12.2959 13.246 11.8872 13.4201 11.4372C13.6173 10.9106 13.7238 10.3543 13.735 9.79204C13.7672 9.0701 13.775 8.83849 13.775 6.99978C13.775 5.16107 13.7672 4.92946 13.7343 4.20688C13.7231 3.64463 13.6167 3.08836 13.4195 2.56171C13.2493 2.10971 12.9826 1.70029 12.6379 1.36204C12.2996 1.0173 11.8902 0.750556 11.4382 0.580425C10.9115 0.383225 10.3553 0.276769 9.79301 0.265586C9.07108 0.233328 8.83947 0.225586 7.00076 0.225586Z" fill="white"/>
<path d="M7.00215 3.52148C6.31413 3.52148 5.64155 3.72551 5.06948 4.10775C4.49741 4.49 4.05154 5.0333 3.78824 5.66895C3.52494 6.3046 3.45605 7.00405 3.59028 7.67886C3.72451 8.35366 4.05582 8.97351 4.54233 9.46001C5.02884 9.94652 5.64868 10.2778 6.32349 10.4121C6.99829 10.5463 7.69774 10.4774 8.33339 10.2141C8.96904 9.95081 9.51234 9.50493 9.89459 8.93286C10.2768 8.36079 10.4809 7.68822 10.4809 7.00019C10.4809 6.07758 10.1144 5.19276 9.46197 4.54038C8.80958 3.88799 7.92476 3.52148 7.00215 3.52148ZM7.00215 9.25826C6.55555 9.25826 6.11897 9.12582 5.74764 8.87771C5.3763 8.62959 5.08688 8.27692 4.91597 7.86432C4.74506 7.45171 4.70034 6.99769 4.78747 6.55967C4.8746 6.12165 5.08966 5.7193 5.40546 5.4035C5.72125 5.08771 6.1236 4.87265 6.56162 4.78552C6.99964 4.69839 7.45367 4.74311 7.86627 4.91401C8.27888 5.08492 8.63154 5.37434 8.87966 5.74568C9.12778 6.11702 9.26021 6.55359 9.26021 7.00019C9.26021 7.59907 9.02231 8.17342 8.59884 8.59689C8.17537 9.02036 7.60102 9.25826 7.00215 9.25826Z" fill="white"/>
<path d="M10.6176 4.19612C11.0665 4.19612 11.4305 3.83217 11.4305 3.38322C11.4305 2.93426 11.0665 2.57031 10.6176 2.57031C10.1686 2.57031 9.80469 2.93426 9.80469 3.38322C9.80469 3.83217 10.1686 4.19612 10.6176 4.19612Z" fill="white"/>
</svg>
