<svg width="313" height="289" viewBox="0 0 313 289" fill="none" xmlns="http://www.w3.org/2000/svg">
<path d="M2 281.791C2 281.791 77.0918 299.397 104.521 269.875C121.554 251.543 137.887 233.028 126.456 210.771C119.465 197.159 108.052 186.043 94.0307 192.182C80.256 198.211 79.3621 213.071 81.6327 227.93C89.1436 277.08 170.802 266.538 211.334 253.669C277.615 232.623 266.648 95.8991 360.109 89.7028C402.303 86.9054 454.752 122.143 446.417 163.583C443.906 176.07 440.794 183.498 428.297 185.985C414.121 188.806 406.699 177.271 402.071 163.583C389.267 125.71 437.493 96.3179 476.935 89.7028C547.985 77.7866 591.974 162.185 656.705 132.124C714.274 105.389 733 2 733 2" stroke="#FFC947" stroke-width="4" stroke-linecap="round"/>
</svg>
