<svg width="45" height="43" viewBox="0 0 45 43" fill="none" xmlns="http://www.w3.org/2000/svg">
<path d="M35.1656 26.4815C37.7747 26.4815 40.277 25.5018 42.1219 23.758C43.9669 22.0141 45.0033 19.6489 45.0033 17.1828C45.0033 14.7166 43.9669 12.3515 42.1219 10.6076C40.277 8.86376 37.7747 7.88408 35.1656 7.88408C34.9688 7.88408 34.765 7.88408 34.5683 7.88408C33.5454 5.66715 31.8603 3.78053 29.7197 2.45555C27.579 1.13056 25.0758 0.424805 22.517 0.424805C19.9582 0.424805 17.4551 1.13056 15.3144 2.45555C13.1738 3.78053 11.4887 5.66715 10.4658 7.88408C10.269 7.88408 10.0653 7.88408 9.8685 7.88408C7.25937 7.88408 4.75709 8.86376 2.91216 10.6076C1.06722 12.3515 0.0307447 14.7166 0.0307447 17.1828C0.0307447 19.6489 1.06722 22.0141 2.91216 23.758C4.75709 25.5018 7.25937 26.4815 9.8685 26.4815H13.382V32.3264H10.4658C10.2149 31.1416 9.51815 30.083 8.50464 29.3466C7.49113 28.6103 6.22959 28.2461 4.95378 28.3217C3.67796 28.3973 2.47438 28.9074 1.56606 29.7576C0.657747 30.6078 0.106276 31.7404 0.0138406 32.9455C-0.0785947 34.1506 0.294274 35.3465 1.06335 36.3117C1.83243 37.2768 2.94557 37.9457 4.19651 38.1944C5.44745 38.4432 6.75137 38.2548 7.86664 37.6644C8.98192 37.0739 9.83294 36.1213 10.262 34.9831H14.7874C15.1601 34.9831 15.5176 34.8432 15.7811 34.5941C16.0447 34.345 16.1928 34.0071 16.1928 33.6548V26.4815H21.1116V33.1765C19.8829 33.4979 18.8191 34.2294 18.1172 35.2354C17.4154 36.2414 17.1232 37.4538 17.2947 38.6479C17.4663 39.842 18.09 40.9368 19.0502 41.7295C20.0104 42.5222 21.2421 42.959 22.517 42.959C23.792 42.959 25.0236 42.5222 25.9839 41.7295C26.9441 40.9368 27.5678 39.842 27.7393 38.6479C27.9109 37.4538 27.6187 36.2414 26.9169 35.2354C26.215 34.2294 25.1512 33.4979 23.9224 33.1765V26.4815H28.8413V33.6548C28.8413 34.0071 28.9894 34.345 29.2529 34.5941C29.5165 34.8432 29.874 34.9831 30.2467 34.9831H34.7932C35.2215 36.1141 36.0688 37.06 37.1783 37.6459C38.2877 38.2317 39.5841 38.4178 40.8276 38.1697C42.071 37.9215 43.1772 37.256 43.9414 36.2962C44.7056 35.3364 45.0761 34.1475 44.9842 32.9494C44.8923 31.7513 44.3443 30.6253 43.4416 29.7798C42.5389 28.9343 41.3427 28.4265 40.0744 28.3505C38.8061 28.2744 37.5516 28.6353 36.5432 29.3663C35.5347 30.0973 34.8406 31.1489 34.5894 32.3264H31.6521V26.4815H35.1656ZM5.30097 35.6473C4.81454 35.6473 4.33903 35.511 3.93458 35.2556C3.53013 35.0001 3.21489 34.6371 3.02875 34.2123C2.8426 33.7875 2.79389 33.3201 2.88879 32.8691C2.98369 32.4182 3.21793 32.004 3.56189 31.6789C3.90584 31.3538 4.34407 31.1324 4.82116 31.0427C5.29824 30.953 5.79275 30.999 6.24216 31.1749C6.69156 31.3509 7.07567 31.6489 7.34592 32.0311C7.61617 32.4134 7.76041 32.8629 7.76041 33.3227C7.76041 33.9392 7.50129 34.5305 7.04006 34.9665C6.57882 35.4024 5.95325 35.6473 5.30097 35.6473ZM39.7331 30.998C40.2195 30.998 40.6951 31.1343 41.0995 31.3898C41.504 31.6452 41.8192 32.0083 42.0053 32.4331C42.1915 32.8578 42.2402 33.3252 42.1453 33.7762C42.0504 34.2271 41.8162 34.6413 41.4722 34.9665C41.1282 35.2916 40.69 35.513 40.2129 35.6027C39.7358 35.6924 39.2413 35.6463 38.7919 35.4704C38.3425 35.2944 37.9584 34.9965 37.6882 34.6142C37.4179 34.2319 37.2737 33.7824 37.2737 33.3227C37.2737 32.7061 37.5328 32.1148 37.994 31.6789C38.4553 31.2429 39.0808 30.998 39.7331 30.998ZM24.9765 37.972C24.9765 38.4318 24.8322 38.8812 24.562 39.2635C24.2917 39.6458 23.9076 39.9438 23.4582 40.1197C23.0088 40.2957 22.5143 40.3417 22.0372 40.252C21.5601 40.1623 21.1219 39.9409 20.778 39.6158C20.434 39.2907 20.1998 38.8765 20.1049 38.4255C20.01 37.9746 20.0587 37.5072 20.2448 37.0824C20.431 36.6576 20.7462 36.2946 21.1507 36.0391C21.5551 35.7837 22.0306 35.6473 22.517 35.6473C23.1693 35.6473 23.7949 35.8923 24.2561 36.3282C24.7174 36.7642 24.9765 37.3555 24.9765 37.972ZM9.8685 23.8247C8.00483 23.8247 6.2175 23.1249 4.89968 21.8793C3.58187 20.6337 2.84153 18.9443 2.84153 17.1828C2.84153 15.4212 3.58187 13.7318 4.89968 12.4862C6.2175 11.2406 8.00483 10.5409 9.8685 10.5409C10.2906 10.5419 10.7116 10.5797 11.1263 10.6538C11.4639 10.7124 11.8125 10.6522 12.1063 10.4845C12.4002 10.3169 12.619 10.0534 12.7214 9.74382C13.4088 7.80247 14.7245 6.11446 16.4823 4.91845C18.2401 3.72244 20.3512 3.07894 22.517 3.07894C24.6829 3.07894 26.794 3.72244 28.5518 4.91845C30.3096 6.11446 31.6252 7.80247 32.3126 9.74382C32.4192 10.0497 32.6397 10.3086 32.9331 10.4724C33.2265 10.6361 33.5729 10.6935 33.9078 10.6338C34.3231 10.5665 34.7442 10.5353 35.1656 10.5409C37.0293 10.5409 38.8166 11.2406 40.1344 12.4862C41.4522 13.7318 42.1926 15.4212 42.1926 17.1828C42.1926 18.9443 41.4522 20.6337 40.1344 21.8793C38.8166 23.1249 37.0293 23.8247 35.1656 23.8247H9.8685Z" fill="#008EFF"/>
</svg>
