<svg width="42" height="47" viewBox="0 0 42 47" fill="none" xmlns="http://www.w3.org/2000/svg">
<path d="M8.92308 30.2357C12.7466 30.2357 15.8462 27.3059 15.8462 23.6919C15.8462 20.0779 12.7466 17.1482 8.92308 17.1482C5.09957 17.1482 2 20.0779 2 23.6919C2 27.3059 5.09957 30.2357 8.92308 30.2357Z" stroke="#45C646" stroke-width="3" stroke-linecap="round" stroke-linejoin="round"/>
<path d="M33.1535 44.9593C36.9771 44.9593 40.0766 42.0296 40.0766 38.4156C40.0766 34.8016 36.9771 31.8718 33.1535 31.8718C29.33 31.8718 26.2305 34.8016 26.2305 38.4156C26.2305 42.0296 29.33 44.9593 33.1535 44.9593Z" stroke="#45C646" stroke-width="3" stroke-linecap="round" stroke-linejoin="round"/>
<path d="M33.1535 15.5123C36.9771 15.5123 40.0766 12.5825 40.0766 8.96853C40.0766 5.35453 36.9771 2.4248 33.1535 2.4248C29.33 2.4248 26.2305 5.35453 26.2305 8.96853C26.2305 12.5825 29.33 15.5123 33.1535 15.5123Z" stroke="#45C646" stroke-width="3" stroke-linecap="round" stroke-linejoin="round"/>
<path d="M27.3312 12.5061L14.7461 20.1533" stroke="#45C646" stroke-width="3" stroke-linecap="round" stroke-linejoin="round"/>
<path d="M14.7461 27.23L27.3312 34.8772" stroke="#45C646" stroke-width="3" stroke-linecap="round" stroke-linejoin="round"/>
</svg>
