<svg width="32" height="32" viewBox="0 0 32 32" fill="none" xmlns="http://www.w3.org/2000/svg">
<path d="M14.4783 6.28331C14.9573 4.80921 17.0427 4.80921 17.5217 6.28331L19.233 11.5502C19.4472 12.2094 20.0615 12.6558 20.7547 12.6558H26.2926C27.8426 12.6558 28.487 14.6391 27.2331 15.5502L22.7528 18.8053C22.192 19.2127 21.9574 19.9349 22.1716 20.5941L23.8829 25.861C24.3618 27.3351 22.6747 28.5609 21.4207 27.6499L16.9404 24.3948C16.3797 23.9873 15.6203 23.9873 15.0595 24.3948L10.5793 27.6499C9.32532 28.5609 7.63815 27.3351 8.11711 25.861L9.82842 20.5941C10.0426 19.9349 9.80797 19.2127 9.24719 18.8053L4.76692 15.5502C3.51298 14.6391 4.15742 12.6558 5.70738 12.6558H11.2453C11.9385 12.6558 12.5528 12.2094 12.767 11.5502L14.4783 6.28331Z" fill="#F97316"/>
</svg>
