<svg width="60" height="60" viewBox="0 0 60 60" fill="none" xmlns="http://www.w3.org/2000/svg">
<rect width="60" height="60" rx="3" fill="#45C646"/>
<path d="M40.3818 29.4275C40.0887 29.4275 39.8077 29.3111 39.6004 29.1038C39.3932 28.8966 39.2768 28.6155 39.2768 28.3225V25.2018C39.2768 20.7816 35.1925 17.2455 30.1712 17.2455C25.1498 17.2455 21.0656 20.8258 21.0656 25.2018V28.3225C21.0656 28.6155 20.9491 28.8966 20.7419 29.1038C20.5347 29.3111 20.2536 29.4275 19.9605 29.4275C19.6674 29.4275 19.3864 29.3111 19.1791 29.1038C18.9719 28.8966 18.8555 28.6155 18.8555 28.3225V25.2018C18.8555 19.5793 23.9387 15 30.1712 15C36.4036 15 41.4869 19.5793 41.4869 25.2018V28.3225C41.488 28.4679 41.4603 28.6121 41.4051 28.7467C41.35 28.8813 41.2687 29.0036 41.1658 29.1065C41.063 29.2093 40.9407 29.2907 40.8061 29.3458C40.6715 29.4009 40.5273 29.4287 40.3818 29.4275Z" fill="white"/>
<path d="M37.3937 39.8245C37.1007 39.8245 36.8196 39.7081 36.6123 39.5009C36.4051 39.2936 36.2887 39.0125 36.2887 38.7195V28.2259C36.2979 27.939 36.4183 27.667 36.6246 27.4673C36.8308 27.2677 37.1067 27.1561 37.3937 27.1563C41.2039 27.1563 44.3069 30.0117 44.3069 33.5125C44.3069 37.0133 41.2039 39.8245 37.3937 39.8245ZM38.4988 29.4459V37.4995C39.4663 37.3393 40.3498 36.853 41.0027 36.1213C41.6556 35.3896 42.0386 34.4565 42.088 33.4771C42.0406 32.4962 41.6585 31.5611 41.0054 30.8276C40.3523 30.094 39.4677 29.6064 38.4988 29.4459ZM22.9132 39.8245C19.103 39.8245 16 36.9779 16 33.4771C16 29.9763 19.103 27.1563 22.9132 27.1563C23.2063 27.1563 23.4873 27.2727 23.6946 27.4799C23.9018 27.6871 24.0182 27.9682 24.0182 28.2613V38.7195C24.0182 39.0125 23.9018 39.2936 23.6946 39.5009C23.4873 39.7081 23.2063 39.8245 22.9132 39.8245ZM21.8081 29.4459C20.8392 29.6064 19.9546 30.094 19.3015 30.8276C18.6484 31.5611 18.2664 32.4962 18.2189 33.4771C18.2683 34.4565 18.6513 35.3896 19.3042 36.1213C19.9571 36.853 20.8407 37.3393 21.8081 37.4995V29.4459Z" fill="white"/>
<path d="M37.0325 43.4233H33.3726C33.0795 43.4233 32.7985 43.3068 32.5912 43.0996C32.384 42.8924 32.2676 42.6113 32.2676 42.3182C32.2676 42.0251 32.384 41.7441 32.5912 41.5368C32.7985 41.3296 33.0795 41.2132 33.3726 41.2132H37.0325C37.6046 41.2132 38.1533 40.9859 38.5578 40.5814C38.9623 40.1769 39.1896 39.6282 39.1896 39.0561V38.5699C39.1896 38.2768 39.306 37.9957 39.5133 37.7885C39.7205 37.5813 40.0016 37.4648 40.2946 37.4648C40.5877 37.4648 40.8688 37.5813 41.076 37.7885C41.2833 37.9957 41.3997 38.2768 41.3997 38.5699V39.0561C41.3997 40.2144 40.9396 41.3252 40.1206 42.1442C39.3016 42.9632 38.1908 43.4233 37.0325 43.4233Z" fill="white"/>
<path d="M31.4804 45.5006H29.2968C28.495 45.5006 27.726 45.1821 27.159 44.6151C26.592 44.0481 26.2734 43.2791 26.2734 42.4772V42.3534C26.2758 41.5531 26.5953 40.7864 27.1621 40.2213C27.7288 39.6562 28.4965 39.3389 29.2968 39.3389H31.4804C32.2799 39.3389 33.0467 39.6565 33.612 40.2218C34.1774 40.7872 34.495 41.5539 34.495 42.3534V42.4772C34.495 43.2775 34.1777 44.0452 33.6126 44.612C33.0475 45.1787 32.2808 45.4983 31.4804 45.5006ZM29.3145 41.549C29.1003 41.549 28.8948 41.6334 28.7425 41.784C28.5903 41.9347 28.5035 42.1393 28.5012 42.3534V42.4772C28.5012 42.6929 28.5869 42.8998 28.7394 43.0523C28.892 43.2048 29.0988 43.2905 29.3145 43.2905H31.4804C31.6946 43.2882 31.8992 43.2015 32.0498 43.0492C32.2004 42.8969 32.2849 42.6914 32.2849 42.4772V42.3534C32.2849 42.1401 32.2001 41.9355 32.0493 41.7846C31.8984 41.6337 31.6938 41.549 31.4804 41.549H29.3145Z" fill="white"/>
</svg>
